# xmcd CD database file
#
# Track frame offsets:
#	150
#	15799
#	36419
#	56963
#	74555
#	101328
#	125499
#	149143
#	170611
#	193786
#
# Disc length: 2856 seconds
#
# Revision: 0
# Processed by: cddbd v1.5.2PL0 Copyright (c) Steve Scherf et al.
# Submitted via: CDex 1.70beta2
#
DISCID=970b260a
DTITLE=Orlando Poleo - Cúrate !
DYEAR=2008
DGENRE=Salsa
TTITLE0=Aqui Están
TTITLE1=On N'a Qu'une Vie
TTITLE2=Nació Salsero
TTITLE3=Arriba Mi Montuno
TTITLE4=La Clave Y El Bongó
TTITLE5=Orlian
TTITLE6=Curate!
TTITLE7=Soy De Venezuela
TTITLE8=Niños De La Calle
TTITLE9=Hemisferio Musical
EXTD=YEAR: 2008
EXTT0=
EXTT1=
EXTT2=
EXTT3=
EXTT4=
EXTT5=
EXTT6=
EXTT7=
EXTT8=
EXTT9=
PLAYORDER=
